<svg xmlns="http://www.w3.org/2000/svg" xmlns:xlink="http://www.w3.org/1999/xlink" viewBox="0 0 201 204.53"><defs><style>.cls-1{fill:url(#Degradado_sin_nombre_10);}.cls-2{fill:url(#Degradado_sin_nombre_10-2);}.cls-3{fill:url(#Degradado_sin_nombre_10-3);}.cls-4{fill:url(#Degradado_sin_nombre_10-4);}.cls-5{fill:url(#Degradado_sin_nombre_10-5);}.cls-6{fill:url(#Degradado_sin_nombre_10-6);}</style><linearGradient id="Degradado_sin_nombre_10" y1="102.27" x2="201" y2="102.27" gradientUnits="userSpaceOnUse"><stop offset="0" stop-color="#455a6f"/><stop offset="0.49" stop-color="#37485a"/><stop offset="0.99" stop-color="#263241"/></linearGradient><linearGradient id="Degradado_sin_nombre_10-2" x1="123.27" y1="184.85" x2="155.7" y2="184.85" xlink:href="#Degradado_sin_nombre_10"/><linearGradient id="Degradado_sin_nombre_10-3" x1="45.49" y1="184.86" x2="77.89" y2="184.86" xlink:href="#Degradado_sin_nombre_10"/><linearGradient id="Degradado_sin_nombre_10-4" x1="84.4" y1="184.85" x2="116.82" y2="184.85" xlink:href="#Degradado_sin_nombre_10"/><linearGradient id="Degradado_sin_nombre_10-5" x1="64.91" y1="137.66" x2="97.36" y2="137.66" xlink:href="#Degradado_sin_nombre_10"/><linearGradient id="Degradado_sin_nombre_10-6" x1="103.83" y1="137.65" x2="136.24" y2="137.65" xlink:href="#Degradado_sin_nombre_10"/></defs><g id="Capa_2" data-name="Capa 2"><g id="Capa_1-2" data-name="Capa 1"><path class="cls-1" d="M177.05,204.53h-8.32c0-.44-.07-.88-.07-1.31V111.75c0-.33,0-.65,0-1s-.05-.39-.07-.6H32.52v94.35H23.77a4,4,0,0,0-.49-.15,10.65,10.65,0,0,1-7.18-4.59,16.31,16.31,0,0,1-3-9.88q0-8.53,0-17.06V78.69h-.88c-2.24,0-4.48,0-6.71,0C3,78.67,1,76.81.29,73.85A5.64,5.64,0,0,0,0,73.07V58.92a3,3,0,0,0,.25-.62,7.46,7.46,0,0,1,3.86-5.49q35.36-19.56,70.7-39.15C83.11,9.07,91.33,4.27,99.75,0h1.61c.72.33,1.46.6,2.16,1L192,50c1.81,1,3.63,2,5.43,3A7.17,7.17,0,0,1,201,59.65c0,.18,0,.35,0,.53V71.86a8.64,8.64,0,0,1-.25,2.53c-.79,2.62-2.69,4.27-5,4.29s-4.52,0-6.78,0c-.26,0-.52,0-.84,0V80q0,54.39,0,108.79a26.31,26.31,0,0,1-.27,3.87c-.91,5.84-4.68,10.39-9.5,11.55ZM48.75,63H34.54c-.22,0-.44,0-.65,0a1.51,1.51,0,0,0-1.35,1.54,7.12,7.12,0,0,0,0,.8c0,3.62,0,7.25,0,10.87,0,2.1.79,2.54,2.07,2.53,9.45,0,18.9,0,28.34,0a4.42,4.42,0,0,0,.73,0A1.58,1.58,0,0,0,64.92,77c0-.15,0-.3,0-.44V65a4.24,4.24,0,0,0,0-.62A1.49,1.49,0,0,0,63.69,63,6,6,0,0,0,63,63Zm103.73,0H138.2c-.22,0-.44,0-.66,0a1.36,1.36,0,0,0-1.21,1.19,4.56,4.56,0,0,0-.09,1q0,5.61,0,11.22c0,.12,0,.24,0,.36,0,1.2.56,1.85,1.54,1.89H166.7a5.81,5.81,0,0,0,.59,0c.79-.09,1.27-.67,1.35-1.65,0-.23,0-.47,0-.7v-11a6.34,6.34,0,0,0,0-.88A1.46,1.46,0,0,0,167.34,63c-.21,0-.43,0-.65,0Zm-51.87,0H86.33a5.93,5.93,0,0,0-.73,0,1.48,1.48,0,0,0-1.17,1.36,5.47,5.47,0,0,0,0,.7q0,5.79,0,11.58a2.44,2.44,0,0,0,0,.27c0,1.12.54,1.73,1.45,1.8.15,0,.3,0,.44,0h28.64a4.34,4.34,0,0,0,.51,0A1.6,1.6,0,0,0,116.8,77c0-.24,0-.48,0-.71v-11c0-.18,0-.35,0-.53,0-1.1-.57-1.74-1.47-1.78H100.61Z"/><path class="cls-2" d="M126,204.53l-.38-.2a3.87,3.87,0,0,1-2.34-3.58c0-.29,0-.59,0-.88V169.81a9.32,9.32,0,0,1,0-1.06c.21-2.09,1.44-3.53,3.17-3.55,3.13,0,6.27,0,9.4,0a1.75,1.75,0,0,1,.35.07V173h6.52v-7.74c.32,0,.55,0,.79,0h8.6a3.65,3.65,0,0,1,1.23.15,3.6,3.6,0,0,1,2.27,3.13,8.46,8.46,0,0,1,.07,1.23v30.24a8.59,8.59,0,0,1-.07,1.24,3.69,3.69,0,0,1-2,3l-.66.33Z"/><path class="cls-3" d="M48.27,204.53c-.18-.08-.35-.16-.54-.23a3.91,3.91,0,0,1-2.23-3.66c0-.12,0-.24,0-.36q0-15.43,0-30.87a6.64,6.64,0,0,1,.15-1.48,3.37,3.37,0,0,1,2.77-2.72c.24,0,.49,0,.73,0h9.32V173h6.42c.07-.83,0-1.67,0-2.51s0-1.77,0-2.65v-2.65h9.4a3.92,3.92,0,0,1,1.23.15,3.78,3.78,0,0,1,2.34,3.55v31.32a6.16,6.16,0,0,1-.08,1.22,3.68,3.68,0,0,1-2.16,2.87l-.54.23Z"/><path class="cls-4" d="M87.21,204.53l-.55-.22a3.84,3.84,0,0,1-2.25-3.55c0-.26,0-.53,0-.79V169.72c0-.35,0-.71,0-1.06a3.59,3.59,0,0,1,2.79-3.44,5.46,5.46,0,0,1,.58,0h9a5.72,5.72,0,0,1,.59.07V173h6.47v-7.72c.29,0,.5-.08.71-.08,2.91,0,5.83,0,8.74,0,2.28,0,3.57,2.05,3.56,4.32,0,10.2,0,20.4,0,30.6,0,2.37-.76,3.61-2.65,4.34,0,0-.07.07-.11.11Z"/><path class="cls-5" d="M77.89,118.09v7.58a35.82,35.82,0,0,0,6.5.06v-7.67A5,5,0,0,1,85,118c3,0,6.08,0,9.12,0a3.27,3.27,0,0,1,3.11,2.77,6.58,6.58,0,0,1,.16,1.48q0,15.39,0,30.78c0,2.51-1.3,3.85-2.57,4.17a4.22,4.22,0,0,1-1,.09c-8.41,0-16.82,0-25.23,0-2,0-3.65-1.67-3.64-4.4,0-7.79,0-15.57,0-23.36,0-2.44,0-4.89,0-7.34a5,5,0,0,1,.58-2.51A3,3,0,0,1,68,118c3.21,0,6.42,0,9.63,0A1.8,1.8,0,0,1,77.89,118.09Z"/><path class="cls-6" d="M116.8,118v7.65a40,40,0,0,0,6.46.07c0-2.53,0-5.08,0-7.68a5.41,5.41,0,0,1,.61-.08c3,0,6,0,9,0,2,0,3.31,1.65,3.31,4,0,10.4,0,20.81,0,31.22,0,2.28-1.5,4.08-3.36,4.07-8.56,0-17.11,0-25.67,0-2,0-3.37-1.66-3.37-4.13q0-15.53,0-31c0-2.47,1.35-4.11,3.38-4.12,3,0,5.93,0,8.9,0C116.31,118,116.5,118,116.8,118Z"/></g></g></svg>