<?xml version="1.0" encoding="UTF-8"?>
<svg id="Capa_1" data-name="Capa 1" xmlns="http://www.w3.org/2000/svg" xmlns:xlink="http://www.w3.org/1999/xlink" viewBox="0 0 500 500">
  <defs>
    <style>
      .cls-1 {
        fill: #6d6e72;
      }

      .cls-1, .cls-2 {
        stroke-width: 0px;
      }

      .cls-2 {
        fill: url(#Degradado_sin_nombre_7);
      }
    </style>
    <linearGradient id="Degradado_sin_nombre_7" data-name="Degradado sin nombre 7" x1="250" y1="21.2" x2="250" y2="478.8" gradientUnits="userSpaceOnUse">
      <stop offset="0" stop-color="#455a6f"/>
      <stop offset=".6" stop-color="#324152"/>
      <stop offset="1" stop-color="#263241"/>
    </linearGradient>
  </defs>
  <g>
    <path class="cls-1" d="M393.3,138.3c-3.5-13-2-28-8.6-39.4-6.7-11.5-20.5-17.7-29.8-27.1-9.4-9.4-15.6-23.1-27.1-29.8-11.4-6.6-26.4-5.1-39.4-8.6-12.5-3.4-24.8-12.2-38.4-12.2s-25.8,8.9-38.4,12.2c-13,3.5-28,2-39.4,8.6-11.5,6.7-17.7,20.5-27.1,29.8-9.4,9.4-23.1,15.6-29.8,27.1-6.6,11.4-5.1,26.4-8.6,39.4-3.4,12.5-12.2,24.8-12.2,38.4s8.9,25.8,12.2,38.4c3.5,13,2,28,8.6,39.4,6.7,11.5,20.5,17.7,29.8,27.1,9.4,9.4,15.6,23.1,27.1,29.8,11.4,6.6,26.4,5.1,39.4,8.6,12.5,3.4,24.8,12.2,38.4,12.2s25.8-8.9,38.4-12.2c13-3.5,28-2,39.4-8.6,11.5-6.7,17.7-20.5,27.1-29.8,9.4-9.4,23.1-15.6,29.8-27.1,6.6-11.4,5.1-26.4,8.6-39.4,3.4-12.5,12.2-24.8,12.2-38.4s-8.9-25.8-12.2-38.4ZM250,300.7c-68.5,0-124.1-55.5-124.1-124.1s55.5-124.1,124.1-124.1,124.1,55.5,124.1,124.1-55.5,124.1-124.1,124.1Z"/>
    <path class="cls-1" d="M250,289.2c-15.2,0-29.9-3-43.8-8.8-13.4-5.7-25.4-13.8-35.8-24.1-10.3-10.3-18.4-22.4-24.1-35.8-5.9-13.9-8.8-28.6-8.8-43.8s3-29.9,8.8-43.8c5.7-13.4,13.8-25.4,24.1-35.8,10.3-10.3,22.4-18.4,35.8-24.1,13.9-5.9,28.6-8.8,43.8-8.8s29.9,3,43.8,8.8c13.4,5.7,25.4,13.8,35.8,24.1,10.3,10.3,18.4,22.4,24.1,35.8,5.9,13.9,8.8,28.6,8.8,43.8s-3,29.9-8.8,43.8c-5.7,13.4-13.8,25.4-24.1,35.8-10.3,10.3-22.4,18.4-35.8,24.1-13.9,5.9-28.6,8.8-43.8,8.8ZM250,76.9c-13.5,0-26.5,2.6-38.8,7.8-11.9,5-22.5,12.2-31.7,21.4-9.2,9.2-16.4,19.8-21.4,31.7-5.2,12.3-7.8,25.4-7.8,38.8s2.6,26.5,7.8,38.8c5,11.9,12.2,22.5,21.4,31.7,9.2,9.2,19.8,16.4,31.7,21.4,12.3,5.2,25.4,7.8,38.8,7.8s26.5-2.6,38.8-7.8c11.9-5,22.5-12.2,31.7-21.4,9.2-9.2,16.4-19.8,21.4-31.7,5.2-12.3,7.8-25.4,7.8-38.8s-2.6-26.5-7.8-38.8c-5-11.9-12.2-22.5-21.4-31.7-9.2-9.2-19.8-16.4-31.7-21.4-12.3-5.2-25.4-7.8-38.8-7.8Z"/>
    <path class="cls-1" d="M238.2,247c-5.9,0-11.2-3.3-13.9-8.5-4.9-9.6-19.1-34.1-43.9-53.6-2.4-1.9-3.4-5.2-2.4-8.1,1-2.9,3.7-4.9,6.8-5,.2,0,.4,0,.6,0,10.3,0,20.5,3,29.6,8.6,6.8,4.2,13,9.8,18.3,16.6,6.8-12.8,16.2-27,26.2-39.4,10.2-12.6,25.9-29.4,42.4-37.5,1-.5,2-.7,3-.7,2.7,0,5.1,1.6,6.2,4,1.1,2.5.7,5.3-1.1,7.3-30.7,34.9-45.6,71.4-57.1,105.7-1.9,5.7-7,9.9-13,10.6-.6,0-1.2.1-1.8.1Z"/>
    <path class="cls-1" d="M258.1,340.6l-46.4,134.1c-1.6,4.7-7.9,5.5-10.6,1.3l-25.9-39.4c-1.5-2.3-4.3-3.2-6.9-2.4l-44.7,14.9c-4.7,1.6-9.1-2.9-7.5-7.6l44.2-127.8c2.2,2,4.7,3.9,7.4,5.5,8.7,5,18.3,6.2,27.6,7.2,5,.6,9.7,1.1,14,2.3,4,1.1,8.2,2.9,12.7,4.9,8.3,3.6,17.6,7.7,28.1,7.7s5.5-.3,8.1-.8Z"/>
    <path class="cls-1" d="M352.4,431.7l-44.9-14.4c-2.6-.8-5.4.2-6.8,2.5l-25.5,39.7c-2.7,4.2-9,3.4-10.6-1.2l-19.9-55.3,22.4-64.8c3.8-1.3,7.5-2.9,10.9-4.4,4.5-1.9,8.7-3.8,12.7-4.9,4.3-1.1,9-1.7,14-2.3,6.3-.7,12.7-1.5,18.8-3.4l36.3,100.9c1.7,4.7-2.7,9.2-7.4,7.7Z"/>
  </g>
  <g>
    <path class="cls-2" d="M393.3,138.3c-3.5-13-2-28-8.6-39.4-6.7-11.5-20.5-17.7-29.8-27.1-9.4-9.4-15.6-23.1-27.1-29.8-11.4-6.6-26.4-5.1-39.4-8.6-12.5-3.4-24.8-12.2-38.4-12.2s-25.8,8.9-38.4,12.2c-13,3.5-28,2-39.4,8.6-11.5,6.7-17.7,20.5-27.1,29.8-9.4,9.4-23.1,15.6-29.8,27.1-6.6,11.4-5.1,26.4-8.6,39.4-3.4,12.5-12.2,24.8-12.2,38.4s8.9,25.8,12.2,38.4c3.5,13,2,28,8.6,39.4,6.7,11.5,20.5,17.7,29.8,27.1,9.4,9.4,15.6,23.1,27.1,29.8,11.4,6.6,26.4,5.1,39.4,8.6,12.5,3.4,24.8,12.2,38.4,12.2s25.8-8.9,38.4-12.2c13-3.5,28-2,39.4-8.6,11.5-6.7,17.7-20.5,27.1-29.8,9.4-9.4,23.1-15.6,29.8-27.1,6.6-11.4,5.1-26.4,8.6-39.4,3.4-12.5,12.2-24.8,12.2-38.4s-8.9-25.8-12.2-38.4ZM250,300.7c-68.5,0-124.1-55.5-124.1-124.1s55.5-124.1,124.1-124.1,124.1,55.5,124.1,124.1-55.5,124.1-124.1,124.1Z"/>
    <path class="cls-2" d="M250,289.2c-15.2,0-29.9-3-43.8-8.8-13.4-5.7-25.4-13.8-35.8-24.1-10.3-10.3-18.4-22.4-24.1-35.8-5.9-13.9-8.8-28.6-8.8-43.8s3-29.9,8.8-43.8c5.7-13.4,13.8-25.4,24.1-35.8,10.3-10.3,22.4-18.4,35.8-24.1,13.9-5.9,28.6-8.8,43.8-8.8s29.9,3,43.8,8.8c13.4,5.7,25.4,13.8,35.8,24.1,10.3,10.3,18.4,22.4,24.1,35.8,5.9,13.9,8.8,28.6,8.8,43.8s-3,29.9-8.8,43.8c-5.7,13.4-13.8,25.4-24.1,35.8-10.3,10.3-22.4,18.4-35.8,24.1-13.9,5.9-28.6,8.8-43.8,8.8ZM250,76.9c-13.5,0-26.5,2.6-38.8,7.8-11.9,5-22.5,12.2-31.7,21.4-9.2,9.2-16.4,19.8-21.4,31.7-5.2,12.3-7.8,25.4-7.8,38.8s2.6,26.5,7.8,38.8c5,11.9,12.2,22.5,21.4,31.7,9.2,9.2,19.8,16.4,31.7,21.4,12.3,5.2,25.4,7.8,38.8,7.8s26.5-2.6,38.8-7.8c11.9-5,22.5-12.2,31.7-21.4,9.2-9.2,16.4-19.8,21.4-31.7,5.2-12.3,7.8-25.4,7.8-38.8s-2.6-26.5-7.8-38.8c-5-11.9-12.2-22.5-21.4-31.7-9.2-9.2-19.8-16.4-31.7-21.4-12.3-5.2-25.4-7.8-38.8-7.8Z"/>
    <g>
      <path class="cls-2" d="M238.2,247c-5.9,0-11.2-3.3-13.9-8.5-4.9-9.6-19.1-34.1-43.9-53.6-2.4-1.9-3.4-5.2-2.4-8.1,1-2.9,3.7-4.9,6.8-5,.2,0,.4,0,.6,0,10.3,0,20.5,3,29.6,8.6,6.8,4.2,13,9.8,18.3,16.6,6.8-12.8,16.2-27,26.2-39.4,10.2-12.6,25.9-29.4,42.4-37.5,1-.5,2-.7,3-.7,2.7,0,5.1,1.6,6.2,4,1.1,2.5.7,5.3-1.1,7.3-30.7,34.9-45.6,71.4-57.1,105.7-1.9,5.7-7,9.9-13,10.6-.6,0-1.2.1-1.8.1Z"/>
      <path class="cls-2" d="M238.2,247c-5.9,0-11.2-3.3-13.9-8.5-4.9-9.6-19.1-34.1-43.9-53.6-2.4-1.9-3.4-5.2-2.4-8.1,1-2.9,3.7-4.9,6.8-5,.2,0,.4,0,.6,0,10.3,0,20.5,3,29.6,8.6,6.8,4.2,13,9.8,18.3,16.6,6.8-12.8,16.2-27,26.2-39.4,10.2-12.6,25.9-29.4,42.4-37.5,1-.5,2-.7,3-.7,2.7,0,5.1,1.6,6.2,4,1.1,2.5.7,5.3-1.1,7.3-30.7,34.9-45.6,71.4-57.1,105.7-1.9,5.7-7,9.9-13,10.6-.6,0-1.2.1-1.8.1Z"/>
    </g>
    <path class="cls-2" d="M258.1,340.6l-46.4,134.1c-1.6,4.7-7.9,5.5-10.6,1.3l-25.9-39.4c-1.5-2.3-4.3-3.2-6.9-2.4l-44.7,14.9c-4.7,1.6-9.1-2.9-7.5-7.6l44.2-127.8c2.2,2,4.7,3.9,7.4,5.5,8.7,5,18.3,6.2,27.6,7.2,5,.6,9.7,1.1,14,2.3,4,1.1,8.2,2.9,12.7,4.9,8.3,3.6,17.6,7.7,28.1,7.7s5.5-.3,8.1-.8Z"/>
    <path class="cls-2" d="M352.4,431.7l-44.9-14.4c-2.6-.8-5.4.2-6.8,2.5l-25.5,39.7c-2.7,4.2-9,3.4-10.6-1.2l-19.9-55.3,22.4-64.8c3.8-1.3,7.5-2.9,10.9-4.4,4.5-1.9,8.7-3.8,12.7-4.9,4.3-1.1,9-1.7,14-2.3,6.3-.7,12.7-1.5,18.8-3.4l36.3,100.9c1.7,4.7-2.7,9.2-7.4,7.7Z"/>
  </g>
</svg>