<svg xmlns="http://www.w3.org/2000/svg" xmlns:xlink="http://www.w3.org/1999/xlink" viewBox="0 0 192.07 191.77"><defs><style>.cls-1{fill:url(#Degradado_sin_nombre_10);}.cls-2{fill:url(#Degradado_sin_nombre_10-2);}.cls-3{fill:url(#Degradado_sin_nombre_10-3);}.cls-4{fill:url(#Degradado_sin_nombre_10-4);}.cls-5{fill:url(#Degradado_sin_nombre_10-5);}</style><linearGradient id="Degradado_sin_nombre_10" x1="95.71" y1="2.66" x2="96.61" y2="187.2" gradientUnits="userSpaceOnUse"><stop offset="0" stop-color="#455a6f"/><stop offset="0.49" stop-color="#37485a"/><stop offset="0.99" stop-color="#263241"/></linearGradient><linearGradient id="Degradado_sin_nombre_10-2" x1="6.28" y1="92.88" x2="192.07" y2="92.88" xlink:href="#Degradado_sin_nombre_10"/><linearGradient id="Degradado_sin_nombre_10-3" x1="0" y1="63.54" x2="122.23" y2="63.54" xlink:href="#Degradado_sin_nombre_10"/><linearGradient id="Degradado_sin_nombre_10-4" x1="66.6" y1="130.79" x2="190.42" y2="130.79" xlink:href="#Degradado_sin_nombre_10"/><linearGradient id="Degradado_sin_nombre_10-5" x1="22.66" y1="155.86" x2="49.79" y2="155.86" xlink:href="#Degradado_sin_nombre_10"/></defs><g id="Capa_2" data-name="Capa 2"><g id="Capa_1-2" data-name="Capa 1"><path class="cls-1" d="M170,2c-.19-.21-.23-.29-.28-.31l-.86-.29a32.25,32.25,0,0,0-17.93-.31,32.67,32.67,0,0,0-24.24,33.21c.36,7.39-2.23,13.57-8,18.2C93,73.36,67.8,94.86,43,116.77Q28.29,129.73,13.9,143a24.48,24.48,0,0,0-5.74,27.23,24.83,24.83,0,0,0,23.26,15.5c7.68-.07,14-3.23,19-8.91,10.43-11.67,21-23.2,31.26-35,15.31-17.7,30.41-35.58,45.54-53.43,4.65-5.49,9.09-11.14,13.63-16.71,3.82-4.68,8.71-7,14.76-6.39A32.74,32.74,0,0,0,191.5,26.81c-.29-1.57-.76-3.11-1.19-4.84-.44.4-.69.62-.92.85-4.61,4.6-9.19,9.22-13.82,13.81a14.21,14.21,0,0,1-20.83-19.3c1.37-1.59,2.93-3,4.42-4.52C162.75,9.22,166.36,5.65,170,2ZM25.47,125.65a5.17,5.17,0,0,0,.56-.36q9-8,18-16a1.69,1.69,0,0,0,.4-1.34,50.21,50.21,0,0,1-.31-21c3.81-18.29,14.31-31.29,31.51-38.51,12.93-5.44,26.1-5.19,39.16-.06a1.35,1.35,0,0,0,1.68-.34,16.75,16.75,0,0,0,5.41-12.91c-.05-2.63.16-5.26.35-7.88.06-.82-.09-1.24-.91-1.46-4-1.08-8-2.23-12-3.28a1.35,1.35,0,0,1-1.21-1.2c-1.31-6.26-2.67-12.5-4-18.77-.19-.89-.5-1.2-1.46-1.19-5,.06-10.09.05-15.14,0-.83,0-1.14.24-1.32,1.07C85,8.77,83.6,15,82.29,21.28c-.16.74-.39,1.14-1.24,1.3A73.77,73.77,0,0,0,52.8,34.3a1.3,1.3,0,0,1-1.7,0c-5.39-3.52-10.8-7-16.18-10.53a1.06,1.06,0,0,0-1.61.15q-5.39,5.47-10.86,10.86a1.06,1.06,0,0,0-.17,1.61c3.55,5.41,7,10.87,10.58,16.28a1.23,1.23,0,0,1,0,1.61A73.84,73.84,0,0,0,21.15,82.48,1.28,1.28,0,0,1,20,83.69C13.68,85,7.39,86.39,1.1,87.7.28,87.87,0,88.15,0,89c0,5,.05,10.09,0,15.13,0,.94.26,1.28,1.18,1.47,6.3,1.3,12.58,2.68,18.88,4a1.16,1.16,0,0,1,1.06,1.06c.52,2.42,1.06,4.85,1.75,7.23C23.63,120.49,24.58,123,25.47,125.65Zm164.86-20.3c0-.35.07-.6.07-.86,0-5.2,0-10.39,0-15.58,0-.75-.25-1-1-1.19-6.26-1.31-12.5-2.68-18.76-4a1.67,1.67,0,0,1-1.48-1.47c-1-3.86-2.11-7.68-3.15-11.53-.21-.8-.63-.87-1.39-.84-3.19.11-6.38.08-9.57.18a22,22,0,0,0-4.45.45c-2.88.7-4.88,2.69-6.66,5a1.93,1.93,0,0,0-.36,2.2,50.87,50.87,0,0,1,1.93,31.91,51.91,51.91,0,0,1-61.26,37.88,1.37,1.37,0,0,0-1.53.53Q75,156.82,67.2,165.61c-.2.23-.37.49-.6.81a73,73,0,0,0,14.29,4.25c.7.13,1.2.29,1.37,1.16.86,4.32,1.81,8.62,2.73,12.92.5,2.35,1,4.7,1.52,7h17.37c.1-.39.19-.72.26-1.05,1.34-6.25,2.7-12.5,4-18.76a1.43,1.43,0,0,1,1.37-1.3,73.39,73.39,0,0,0,27.85-11.51,1.63,1.63,0,0,1,2.17,0c5.25,3.46,10.55,6.84,15.8,10.3.84.56,1.29.43,2-.25q5.25-5.36,10.62-10.62c.67-.65.61-1.07.15-1.78-3.51-5.35-7-10.73-10.46-16.09a1.21,1.21,0,0,1-.1-1.59,74.09,74.09,0,0,0,11.8-28.46,1.15,1.15,0,0,1,1.06-1.07c3.46-.7,6.92-1.46,10.38-2.2Z"/><path class="cls-2" d="M170,2c-3.64,3.62-7.25,7.19-10.84,10.78-1.49,1.49-3,2.93-4.42,4.52a14.21,14.21,0,0,0,20.83,19.3c4.63-4.59,9.21-9.21,13.82-13.81.23-.23.48-.45.92-.85.43,1.73.9,3.27,1.19,4.84a32.74,32.74,0,0,1-35.86,38.46c-6-.66-10.94,1.71-14.76,6.39-4.54,5.57-9,11.22-13.63,16.71C112.12,106.22,97,124.1,81.71,141.8c-10.24,11.84-20.83,23.37-31.26,35-5.07,5.68-11.35,8.84-19,8.91a24.83,24.83,0,0,1-23.26-15.5A24.48,24.48,0,0,1,13.9,143Q28.24,129.69,43,116.77C67.8,94.86,93,73.36,118.73,52.53c5.73-4.63,8.32-10.81,8-18.2A32.67,32.67,0,0,1,150.93,1.12a32.25,32.25,0,0,1,17.93.31l.86.29C169.77,1.74,169.81,1.82,170,2ZM49.79,155.9a13.57,13.57,0,1,0-13.61,13.51A13.48,13.48,0,0,0,49.79,155.9Z"/><path class="cls-3" d="M25.47,125.65c-.89-2.64-1.84-5.16-2.6-7.75-.69-2.38-1.23-4.81-1.75-7.23a1.16,1.16,0,0,0-1.06-1.06c-6.3-1.32-12.58-2.7-18.88-4-.92-.19-1.19-.53-1.18-1.47C.05,99.1,0,94.05,0,89c0-.86.28-1.14,1.1-1.31C7.39,86.39,13.68,85,20,83.69a1.28,1.28,0,0,0,1.18-1.21A73.84,73.84,0,0,1,32.86,54.23a1.23,1.23,0,0,0,0-1.61c-3.54-5.41-7-10.87-10.58-16.28a1.06,1.06,0,0,1,.17-1.61q5.46-5.4,10.86-10.86a1.06,1.06,0,0,1,1.61-.15c5.38,3.53,10.79,7,16.18,10.53a1.3,1.3,0,0,0,1.7,0A73.77,73.77,0,0,1,81.05,22.58c.85-.16,1.08-.56,1.24-1.3C83.6,15,85,8.77,86.26,2.51c.18-.83.49-1.08,1.32-1.07,5,0,10.09.05,15.14,0,1,0,1.27.3,1.46,1.19,1.3,6.27,2.66,12.51,4,18.77a1.35,1.35,0,0,0,1.21,1.2c4,1.05,8,2.2,12,3.28.82.22,1,.64.91,1.46-.19,2.62-.4,5.25-.35,7.88a16.75,16.75,0,0,1-5.41,12.91,1.35,1.35,0,0,1-1.68.34c-13.06-5.13-26.23-5.38-39.16.06C58.42,55.74,47.92,68.74,44.11,87a50.21,50.21,0,0,0,.31,21,1.69,1.69,0,0,1-.4,1.34q-9,8-18,16A5.17,5.17,0,0,1,25.47,125.65Z"/><path class="cls-4" d="M190.33,105.3l-9.6,2c-3.46.74-6.92,1.5-10.38,2.21a1.13,1.13,0,0,0-1.06,1.06,74,74,0,0,1-11.8,28.46,1.23,1.23,0,0,0,.1,1.6c3.49,5.35,6.95,10.73,10.46,16.08.46.71.52,1.13-.15,1.79q-5.37,5.25-10.62,10.61c-.67.68-1.12.81-2,.25-5.25-3.46-10.55-6.84-15.8-10.29a1.63,1.63,0,0,0-2.17,0,73.4,73.4,0,0,1-27.85,11.52,1.42,1.42,0,0,0-1.37,1.29c-1.29,6.26-2.65,12.51-4,18.77-.07.33-.16.65-.26,1H86.51c-.51-2.32-1-4.67-1.52-7-.92-4.31-1.87-8.61-2.73-12.92-.17-.88-.67-1-1.37-1.17a73,73,0,0,1-14.29-4.24c.23-.32.4-.59.6-.82Q75,156.77,82.76,148a1.37,1.37,0,0,1,1.53-.53,51.9,51.9,0,0,0,61.26-37.87,50.86,50.86,0,0,0-1.93-31.91,2,2,0,0,1,.36-2.21c1.78-2.26,3.78-4.25,6.66-5a22,22,0,0,1,4.45-.46c3.19-.1,6.38-.07,9.57-.18.76,0,1.18,0,1.39.85,1,3.84,2.15,7.67,3.15,11.52a1.66,1.66,0,0,0,1.48,1.47c6.26,1.29,12.5,2.67,18.76,4,.73.15,1,.43,1,1.18,0,5.19,0,10.39,0,15.58C190.4,104.7,190.36,105,190.33,105.3Z"/><path class="cls-5" d="M49.79,155.9a13.57,13.57,0,1,1-13.5-13.59A13.54,13.54,0,0,1,49.79,155.9Z"/></g></g></svg>