<?xml version="1.0" encoding="UTF-8"?>
<svg id="Capa_1" data-name="Capa 1" xmlns="http://www.w3.org/2000/svg" xmlns:xlink="http://www.w3.org/1999/xlink" viewBox="0 0 500 500">
  <defs>
    <style>
      .cls-1 {
        fill: #6d6e72;
      }

      .cls-1, .cls-2 {
        stroke-width: 0px;
      }

      .cls-2 {
        fill: url(#Degradado_sin_nombre_7);
      }
    </style>
    <linearGradient id="Degradado_sin_nombre_7" data-name="Degradado sin nombre 7" x1="250" y1="26.9" x2="250" y2="473.1" gradientUnits="userSpaceOnUse">
      <stop offset="0" stop-color="#455a6f"/>
      <stop offset=".6" stop-color="#324152"/>
      <stop offset="1" stop-color="#263241"/>
    </linearGradient>
  </defs>
  <g>
    <path class="cls-1" d="M205.6,115.4c18.5,56.3,70.2,56.2,88.7,0,6.1-3.2,12.4-12.7,13.4-20.6,1.1-8.3.4-19.2-7.9-19.2-1.8-26.4-16.3-48.7-49.2-48.7s-48.6,19.3-50.6,48.7c-8.3,0-9,10.9-7.9,19.2,1,7.9,7.3,17.4,13.4,20.6Z"/>
    <path class="cls-1" d="M363.8,219.5c0-28.1-20.5-52.5-49.2-58.5l-21-4.4-43.7,87-43.7-87-21,4.4c-28.7,6-49.2,30.3-49.2,58.5v52.5h227.6v-52.5Z"/>
    <path class="cls-1" d="M74.9,368.9c12.3,37.4,46.7,37.4,59,0,4.1-2.1,8.2-8.5,8.9-13.7.7-5.5.3-12.7-5.2-12.7-1.2-17.6-10.8-32.4-32.7-32.4s-32.3,12.9-33.6,32.4c-5.5,0-6,7.3-5.2,12.7.7,5.2,4.9,11.5,8.9,13.7Z"/>
    <path class="cls-1" d="M147.3,399.3l-13.9-2.9-29,57.9-29-57.9-13.9,2.9c-19.1,4-32.7,20.2-32.7,38.9v34.9h151.3v-34.9c0-18.7-13.6-34.9-32.7-38.9Z"/>
    <path class="cls-1" d="M357.2,355.2c.7,5.2,4.9,11.5,8.9,13.7,12.3,37.4,46.7,37.4,59,0,4.1-2.1,8.2-8.5,8.9-13.7.7-5.5.3-12.7-5.2-12.7-1.2-17.6-10.8-32.4-32.7-32.4s-32.3,12.9-33.6,32.4c-5.5,0-6,7.3-5.2,12.7Z"/>
    <path class="cls-1" d="M438.6,399.3l-13.9-2.9-29,57.9-29-57.9-13.9,2.9c-19.1,4-32.7,20.2-32.7,38.9v34.9h151.3v-34.9c0-18.7-13.6-34.9-32.7-38.9Z"/>
    <path class="cls-1" d="M333.9,366.8c0-7.7-6.2-13.9-13.9-13.9h-56v-54c0-7.7-6.2-13.9-13.9-13.9s-13.9,6.2-13.9,13.9v54h-56c-7.7,0-13.9,6.2-13.9,13.9s6.2,13.9,13.9,13.9h140c7.7,0,13.9-6.2,13.9-13.9Z"/>
  </g>
  <g>
    <path class="cls-2" d="M205.6,115.4c18.5,56.3,70.2,56.2,88.7,0,6.1-3.2,12.4-12.7,13.4-20.6,1.1-8.3.4-19.2-7.9-19.2-1.8-26.4-16.3-48.7-49.2-48.7s-48.6,19.3-50.6,48.7c-8.3,0-9,10.9-7.9,19.2,1,7.9,7.3,17.4,13.4,20.6Z"/>
    <path class="cls-2" d="M363.8,219.5c0-28.1-20.5-52.5-49.2-58.5l-21-4.4-43.7,87-43.7-87-21,4.4c-28.7,6-49.2,30.3-49.2,58.5v52.5h227.6v-52.5Z"/>
    <path class="cls-2" d="M74.9,368.9c12.3,37.4,46.7,37.4,59,0,4.1-2.1,8.2-8.5,8.9-13.7.7-5.5.3-12.7-5.2-12.7-1.2-17.6-10.8-32.4-32.7-32.4s-32.3,12.9-33.6,32.4c-5.5,0-6,7.3-5.2,12.7.7,5.2,4.9,11.5,8.9,13.7Z"/>
    <path class="cls-2" d="M147.3,399.3l-13.9-2.9-29,57.9-29-57.9-13.9,2.9c-19.1,4-32.7,20.2-32.7,38.9v34.9h151.3v-34.9c0-18.7-13.6-34.9-32.7-38.9Z"/>
    <path class="cls-2" d="M357.2,355.2c.7,5.2,4.9,11.5,8.9,13.7,12.3,37.4,46.7,37.4,59,0,4.1-2.1,8.2-8.5,8.9-13.7.7-5.5.3-12.7-5.2-12.7-1.2-17.6-10.8-32.4-32.7-32.4s-32.3,12.9-33.6,32.4c-5.5,0-6,7.3-5.2,12.7Z"/>
    <path class="cls-2" d="M438.6,399.3l-13.9-2.9-29,57.9-29-57.9-13.9,2.9c-19.1,4-32.7,20.2-32.7,38.9v34.9h151.3v-34.9c0-18.7-13.6-34.9-32.7-38.9Z"/>
    <path class="cls-2" d="M333.9,366.8c0-7.7-6.2-13.9-13.9-13.9h-56v-54c0-7.7-6.2-13.9-13.9-13.9s-13.9,6.2-13.9,13.9v54h-56c-7.7,0-13.9,6.2-13.9,13.9s6.2,13.9,13.9,13.9h140c7.7,0,13.9-6.2,13.9-13.9Z"/>
  </g>
</svg>