<?xml version="1.0" encoding="UTF-8"?>
<svg id="Capa_1" data-name="Capa 1" xmlns="http://www.w3.org/2000/svg" xmlns:xlink="http://www.w3.org/1999/xlink" viewBox="0 0 500 500">
  <defs>
    <style>
      .cls-1 {
        fill: url(#Degradado_sin_nombre_7-5);
      }

      .cls-1, .cls-2, .cls-3, .cls-4, .cls-5, .cls-6, .cls-7, .cls-8, .cls-9, .cls-10, .cls-11, .cls-12, .cls-13, .cls-14, .cls-15, .cls-16, .cls-17, .cls-18, .cls-19, .cls-20, .cls-21, .cls-22, .cls-23, .cls-24, .cls-25, .cls-26, .cls-27, .cls-28, .cls-29, .cls-30, .cls-31, .cls-32, .cls-33, .cls-34 {
        stroke-width: 0px;
      }

      .cls-2 {
        fill: url(#Degradado_sin_nombre_7-3);
      }

      .cls-3 {
        fill: url(#Degradado_sin_nombre_7-21);
      }

      .cls-4 {
        fill: url(#Degradado_sin_nombre_7-2);
      }

      .cls-5 {
        fill: url(#Degradado_sin_nombre_7-22);
      }

      .cls-6 {
        fill: url(#Degradado_sin_nombre_7-30);
      }

      .cls-7 {
        fill: url(#Degradado_sin_nombre_7-14);
      }

      .cls-8 {
        fill: url(#Degradado_sin_nombre_7-32);
      }

      .cls-9 {
        fill: url(#Degradado_sin_nombre_7-4);
      }

      .cls-10 {
        fill: url(#Degradado_sin_nombre_7-6);
      }

      .cls-11 {
        fill: url(#Degradado_sin_nombre_7-13);
      }

      .cls-12 {
        fill: url(#Degradado_sin_nombre_7);
      }

      .cls-13 {
        fill: url(#Degradado_sin_nombre_7-15);
      }

      .cls-14 {
        fill: url(#Degradado_sin_nombre_7-20);
      }

      .cls-15 {
        fill: url(#Degradado_sin_nombre_7-12);
      }

      .cls-16 {
        fill: url(#Degradado_sin_nombre_7-26);
      }

      .cls-17 {
        fill: url(#Degradado_sin_nombre_7-24);
      }

      .cls-18 {
        fill: url(#Degradado_sin_nombre_7-25);
      }

      .cls-19 {
        fill: url(#Degradado_sin_nombre_7-17);
      }

      .cls-20 {
        fill: url(#Degradado_sin_nombre_7-9);
      }

      .cls-21 {
        fill: url(#Degradado_sin_nombre_7-23);
      }

      .cls-22 {
        fill: url(#Degradado_sin_nombre_7-27);
      }

      .cls-23 {
        fill: url(#Degradado_sin_nombre_7-33);
      }

      .cls-24 {
        fill: url(#Degradado_sin_nombre_7-10);
      }

      .cls-25 {
        fill: url(#Degradado_sin_nombre_7-28);
      }

      .cls-26 {
        fill: url(#Degradado_sin_nombre_7-31);
      }

      .cls-27 {
        fill: url(#Degradado_sin_nombre_7-8);
      }

      .cls-28 {
        fill: url(#Degradado_sin_nombre_7-34);
      }

      .cls-29 {
        fill: url(#Degradado_sin_nombre_7-11);
      }

      .cls-30 {
        fill: url(#Degradado_sin_nombre_7-18);
      }

      .cls-31 {
        fill: url(#Degradado_sin_nombre_7-7);
      }

      .cls-32 {
        fill: url(#Degradado_sin_nombre_7-29);
      }

      .cls-33 {
        fill: url(#Degradado_sin_nombre_7-19);
      }

      .cls-34 {
        fill: url(#Degradado_sin_nombre_7-16);
      }
    </style>
    <linearGradient id="Degradado_sin_nombre_7" data-name="Degradado sin nombre 7" x1="376.2" y1="156.4" x2="376.2" y2="234.6" gradientUnits="userSpaceOnUse">
      <stop offset="0" stop-color="#455a6f"/>
      <stop offset=".6" stop-color="#324152"/>
      <stop offset="1" stop-color="#263241"/>
    </linearGradient>
    <linearGradient id="Degradado_sin_nombre_7-2" data-name="Degradado sin nombre 7" x1="229.4" y1="47.9" x2="229.4" y2="231.7" xlink:href="#Degradado_sin_nombre_7"/>
    <linearGradient id="Degradado_sin_nombre_7-3" data-name="Degradado sin nombre 7" x1="350.9" y1="280.9" x2="350.9" y2="434.8" xlink:href="#Degradado_sin_nombre_7"/>
    <linearGradient id="Degradado_sin_nombre_7-4" data-name="Degradado sin nombre 7" x1="213.4" y1="127.5" x2="213.4" y2="236" xlink:href="#Degradado_sin_nombre_7"/>
    <linearGradient id="Degradado_sin_nombre_7-5" data-name="Degradado sin nombre 7" x1="269.9" y1="302.6" x2="269.9" y2="407.3" xlink:href="#Degradado_sin_nombre_7"/>
    <linearGradient id="Degradado_sin_nombre_7-6" data-name="Degradado sin nombre 7" x1="116" y1="166.5" x2="116" y2="240.4" xlink:href="#Degradado_sin_nombre_7"/>
    <linearGradient id="Degradado_sin_nombre_7-7" data-name="Degradado sin nombre 7" x1="159.2" y1="308.4" x2="159.2" y2="378.3" xlink:href="#Degradado_sin_nombre_7"/>
    <linearGradient id="Degradado_sin_nombre_7-8" data-name="Degradado sin nombre 7" x1="185.9" y1="311.3" x2="185.9" y2="452.1" xlink:href="#Degradado_sin_nombre_7"/>
    <linearGradient id="Degradado_sin_nombre_7-9" data-name="Degradado sin nombre 7" x1="225" y1="208.5" x2="225" y2="330.1" xlink:href="#Degradado_sin_nombre_7"/>
    <linearGradient id="Degradado_sin_nombre_7-10" data-name="Degradado sin nombre 7" x1="189.8" y1="38.7" x2="189.8" y2="67.7" xlink:href="#Degradado_sin_nombre_7"/>
    <linearGradient id="Degradado_sin_nombre_7-11" data-name="Degradado sin nombre 7" x1="213.9" y1="114.9" x2="213.9" y2="143.9" xlink:href="#Degradado_sin_nombre_7"/>
    <linearGradient id="Degradado_sin_nombre_7-12" data-name="Degradado sin nombre 7" x1="80.1" y1="158.3" x2="80.1" y2="187.3" xlink:href="#Degradado_sin_nombre_7"/>
    <linearGradient id="Degradado_sin_nombre_7-13" data-name="Degradado sin nombre 7" x1="419.9" y1="148.2" x2="419.9" y2="177.2" xlink:href="#Degradado_sin_nombre_7"/>
    <linearGradient id="Degradado_sin_nombre_7-14" data-name="Degradado sin nombre 7" x1="390" y1="414.5" x2="390" y2="443.4" xlink:href="#Degradado_sin_nombre_7"/>
    <linearGradient id="Degradado_sin_nombre_7-15" data-name="Degradado sin nombre 7" x1="268.9" y1="392.8" x2="268.9" y2="421.7" xlink:href="#Degradado_sin_nombre_7"/>
    <linearGradient id="Degradado_sin_nombre_7-16" data-name="Degradado sin nombre 7" x1="145.4" y1="432.3" x2="145.4" y2="461.3" xlink:href="#Degradado_sin_nombre_7"/>
    <linearGradient id="Degradado_sin_nombre_7-17" data-name="Degradado sin nombre 7" x1="188.8" y1="358.5" x2="188.8" y2="387.5" xlink:href="#Degradado_sin_nombre_7"/>
    <linearGradient id="Degradado_sin_nombre_7-18" data-name="Degradado sin nombre 7" x1="250" y1="38.7" x2="250" y2="461.3" xlink:href="#Degradado_sin_nombre_7"/>
    <linearGradient id="Degradado_sin_nombre_7-19" data-name="Degradado sin nombre 7" x1="250" y1="38.7" x2="250" y2="461.3" xlink:href="#Degradado_sin_nombre_7"/>
    <linearGradient id="Degradado_sin_nombre_7-20" data-name="Degradado sin nombre 7" x1="250" y1="38.7" x2="250" y2="461.3" xlink:href="#Degradado_sin_nombre_7"/>
    <linearGradient id="Degradado_sin_nombre_7-21" data-name="Degradado sin nombre 7" x1="250" y1="38.7" x2="250" y2="461.3" xlink:href="#Degradado_sin_nombre_7"/>
    <linearGradient id="Degradado_sin_nombre_7-22" data-name="Degradado sin nombre 7" x1="250" y1="38.7" x2="250" y2="461.3" xlink:href="#Degradado_sin_nombre_7"/>
    <linearGradient id="Degradado_sin_nombre_7-23" data-name="Degradado sin nombre 7" x1="250" y1="38.7" x2="250" y2="461.3" xlink:href="#Degradado_sin_nombre_7"/>
    <linearGradient id="Degradado_sin_nombre_7-24" data-name="Degradado sin nombre 7" x1="250" y1="38.7" x2="250" y2="461.3" xlink:href="#Degradado_sin_nombre_7"/>
    <linearGradient id="Degradado_sin_nombre_7-25" data-name="Degradado sin nombre 7" x1="250" y1="38.7" x2="250" y2="461.3" xlink:href="#Degradado_sin_nombre_7"/>
    <linearGradient id="Degradado_sin_nombre_7-26" data-name="Degradado sin nombre 7" x1="250" y1="38.7" x2="250" y2="461.3" xlink:href="#Degradado_sin_nombre_7"/>
    <linearGradient id="Degradado_sin_nombre_7-27" data-name="Degradado sin nombre 7" x1="250" y1="38.7" x2="250" y2="461.3" xlink:href="#Degradado_sin_nombre_7"/>
    <linearGradient id="Degradado_sin_nombre_7-28" data-name="Degradado sin nombre 7" x1="250" y1="38.7" x2="250" y2="461.3" xlink:href="#Degradado_sin_nombre_7"/>
    <linearGradient id="Degradado_sin_nombre_7-29" data-name="Degradado sin nombre 7" x1="250" y1="38.7" x2="250" y2="461.3" xlink:href="#Degradado_sin_nombre_7"/>
    <linearGradient id="Degradado_sin_nombre_7-30" data-name="Degradado sin nombre 7" x1="250" y1="38.7" x2="250" y2="461.3" xlink:href="#Degradado_sin_nombre_7"/>
    <linearGradient id="Degradado_sin_nombre_7-31" data-name="Degradado sin nombre 7" x1="250" y1="38.7" x2="250" y2="461.3" xlink:href="#Degradado_sin_nombre_7"/>
    <linearGradient id="Degradado_sin_nombre_7-32" data-name="Degradado sin nombre 7" x1="250" y1="38.7" x2="250" y2="461.3" xlink:href="#Degradado_sin_nombre_7"/>
    <linearGradient id="Degradado_sin_nombre_7-33" data-name="Degradado sin nombre 7" x1="250" y1="38.7" x2="250" y2="461.3" xlink:href="#Degradado_sin_nombre_7"/>
    <linearGradient id="Degradado_sin_nombre_7-34" data-name="Degradado sin nombre 7" x1="250" y1="38.7" x2="250" y2="461.3" xlink:href="#Degradado_sin_nombre_7"/>
  </defs>
  <g>
    <g>
      <polygon class="cls-12" points="343.7 234.6 332.1 234.6 332.1 156.4 420.4 156.4 420.4 168 343.7 168 343.7 234.6"/>
      <polygon class="cls-4" points="268.4 231.7 256.9 231.7 256.9 59.5 190.3 59.5 190.3 47.9 268.4 47.9 268.4 231.7"/>
      <polygon class="cls-2" points="390 434.8 311.9 434.8 311.9 280.9 323.4 280.9 323.4 423.2 390 423.2 390 434.8"/>
      <rect class="cls-9" x="207.7" y="127.5" width="11.6" height="108.5"/>
      <rect class="cls-1" x="264.1" y="302.6" width="11.6" height="104.7"/>
      <polygon class="cls-10" points="152.9 240.4 141.3 240.4 141.3 178.1 79.1 178.1 79.1 166.5 152.9 166.5 152.9 240.4"/>
      <polygon class="cls-31" points="188.8 378.3 129.5 378.3 129.5 308.4 141.1 308.4 141.1 366.7 188.8 366.7 188.8 378.3"/>
      <polygon class="cls-27" points="226.5 452.1 145.4 452.1 145.4 440.5 214.9 440.5 214.9 311.3 226.5 311.3 226.5 452.1"/>
    </g>
    <path class="cls-20" d="M80.3,208.5v121.6h289.4v-121.6H80.3ZM140.1,270.3h-45.3v-45.3h45.3v45.3ZM290.1,285.2h-130.2v-31.8h130.2v31.8Z"/>
    <path class="cls-24" d="M204.3,53.2c0,8-6.5,14.5-14.5,14.5s-14.5-6.5-14.5-14.5,6.5-14.5,14.5-14.5,14.5,6.5,14.5,14.5Z"/>
    <path class="cls-29" d="M228.4,129.4c0,8-6.5,14.5-14.5,14.5s-14.5-6.5-14.5-14.5,6.5-14.5,14.5-14.5,14.5,6.5,14.5,14.5Z"/>
    <path class="cls-15" d="M94.6,172.8c0,8-6.5,14.5-14.5,14.5s-14.5-6.5-14.5-14.5,6.5-14.5,14.5-14.5,14.5,6.5,14.5,14.5Z"/>
    <path class="cls-11" d="M434.4,162.7c0,8-6.5,14.5-14.5,14.5s-14.5-6.5-14.5-14.5,6.5-14.5,14.5-14.5,14.5,6.5,14.5,14.5Z"/>
    <path class="cls-7" d="M404.5,429c0,8-6.5,14.5-14.5,14.5s-14.5-6.5-14.5-14.5,6.5-14.5,14.5-14.5,14.5,6.5,14.5,14.5Z"/>
    <path class="cls-13" d="M283.4,407.3c0,8-6.5,14.5-14.5,14.5s-14.5-6.5-14.5-14.5,6.5-14.5,14.5-14.5,14.5,6.5,14.5,14.5Z"/>
    <path class="cls-34" d="M159.9,446.8c0,8-6.5,14.5-14.5,14.5s-14.5-6.5-14.5-14.5,6.5-14.5,14.5-14.5,14.5,6.5,14.5,14.5Z"/>
    <path class="cls-19" d="M203.3,373c0,8-6.5,14.5-14.5,14.5s-14.5-6.5-14.5-14.5,6.5-14.5,14.5-14.5,14.5,6.5,14.5,14.5Z"/>
  </g>
  <g>
    <g>
      <polygon class="cls-30" points="343.7 234.6 332.1 234.6 332.1 156.4 420.4 156.4 420.4 168 343.7 168 343.7 234.6"/>
      <polygon class="cls-33" points="268.4 231.7 256.9 231.7 256.9 59.5 190.3 59.5 190.3 47.9 268.4 47.9 268.4 231.7"/>
      <polygon class="cls-14" points="390 434.8 311.9 434.8 311.9 280.9 323.4 280.9 323.4 423.2 390 423.2 390 434.8"/>
      <rect class="cls-3" x="207.7" y="127.5" width="11.6" height="108.5"/>
      <rect class="cls-5" x="264.1" y="302.6" width="11.6" height="104.7"/>
      <polygon class="cls-21" points="152.9 240.4 141.3 240.4 141.3 178.1 79.1 178.1 79.1 166.5 152.9 166.5 152.9 240.4"/>
      <polygon class="cls-17" points="188.8 378.3 129.5 378.3 129.5 308.4 141.1 308.4 141.1 366.7 188.8 366.7 188.8 378.3"/>
      <polygon class="cls-18" points="226.5 452.1 145.4 452.1 145.4 440.5 214.9 440.5 214.9 311.3 226.5 311.3 226.5 452.1"/>
    </g>
    <path class="cls-16" d="M80.3,208.5v121.6h289.4v-121.6H80.3ZM140.1,270.3h-45.3v-45.3h45.3v45.3ZM290.1,285.2h-130.2v-31.8h130.2v31.8Z"/>
    <path class="cls-22" d="M204.3,53.2c0,8-6.5,14.5-14.5,14.5s-14.5-6.5-14.5-14.5,6.5-14.5,14.5-14.5,14.5,6.5,14.5,14.5Z"/>
    <path class="cls-25" d="M228.4,129.4c0,8-6.5,14.5-14.5,14.5s-14.5-6.5-14.5-14.5,6.5-14.5,14.5-14.5,14.5,6.5,14.5,14.5Z"/>
    <path class="cls-32" d="M94.6,172.8c0,8-6.5,14.5-14.5,14.5s-14.5-6.5-14.5-14.5,6.5-14.5,14.5-14.5,14.5,6.5,14.5,14.5Z"/>
    <path class="cls-6" d="M434.4,162.7c0,8-6.5,14.5-14.5,14.5s-14.5-6.5-14.5-14.5,6.5-14.5,14.5-14.5,14.5,6.5,14.5,14.5Z"/>
    <path class="cls-26" d="M404.5,429c0,8-6.5,14.5-14.5,14.5s-14.5-6.5-14.5-14.5,6.5-14.5,14.5-14.5,14.5,6.5,14.5,14.5Z"/>
    <path class="cls-8" d="M283.4,407.3c0,8-6.5,14.5-14.5,14.5s-14.5-6.5-14.5-14.5,6.5-14.5,14.5-14.5,14.5,6.5,14.5,14.5Z"/>
    <path class="cls-23" d="M159.9,446.8c0,8-6.5,14.5-14.5,14.5s-14.5-6.5-14.5-14.5,6.5-14.5,14.5-14.5,14.5,6.5,14.5,14.5Z"/>
    <path class="cls-28" d="M203.3,373c0,8-6.5,14.5-14.5,14.5s-14.5-6.5-14.5-14.5,6.5-14.5,14.5-14.5,14.5,6.5,14.5,14.5Z"/>
  </g>
</svg>